<svg width="35" height="35" viewBox="0 0 35 35" fill="none" xmlns="http://www.w3.org/2000/svg">
<path fill-rule="evenodd" clip-rule="evenodd" d="M13.4895 11.6667H11.302V9.47917C11.302 6.06667 14.0874 3.28125 17.4999 3.28125C20.9124 3.28125 23.6978 6.06667 23.6978 9.47917V11.6667H21.5103V9.47917C21.5103 7.2625 19.7166 5.46875 17.4999 5.46875C15.2833 5.46875 13.4895 7.2625 13.4895 9.47917V11.6667ZM26.9791 11.6667H23.6978V16.0417C23.6978 16.6396 23.202 17.1354 22.6041 17.1354C22.0062 17.1354 21.5103 16.6396 21.5103 16.0417V11.6667H13.4895V16.0417C13.4895 16.6396 12.9937 17.1354 12.3958 17.1354C11.7978 17.1354 11.302 16.6396 11.302 16.0417V11.6667H8.02075C6.81034 11.6667 5.83325 12.6438 5.83325 13.8542V26.25C5.83325 29.1667 7.29159 30.625 10.2083 30.625H24.7916C27.7083 30.625 29.1666 29.1667 29.1666 26.25V13.8542C29.1666 12.6438 28.1895 11.6667 26.9791 11.6667Z" fill="#00A500"/>
</svg>
