<svg width="50" height="50" viewBox="0 0 50 50" fill="none" xmlns="http://www.w3.org/2000/svg">
<path d="M43.6254 17.2705C43.4795 14.2705 42.792 11.6038 40.6045 9.41633C38.417 7.22883 35.7504 6.54134 32.7504 6.39551C29.6462 6.22884 20.3753 6.22884 17.292 6.39551C14.292 6.54134 11.6462 7.22883 9.43785 9.41633C7.22952 11.6038 6.56283 14.2705 6.41699 17.2705C6.25033 20.3746 6.25033 29.6455 6.41699 32.7497C6.56283 35.7497 7.25035 38.4163 9.43785 40.6038C11.6462 42.7913 14.292 43.4788 17.292 43.6247C20.3962 43.7913 29.667 43.7913 32.7504 43.6247C35.7504 43.4788 38.417 42.7913 40.6045 40.6038C42.792 38.4163 43.4795 35.7497 43.6254 32.7497C43.792 29.6455 43.792 20.3747 43.6254 17.2913V17.2705ZM25.0004 34.8955C19.542 34.8955 15.1045 30.458 15.1045 24.9997C15.1045 19.5413 19.542 15.1038 25.0004 15.1038C30.4587 15.1038 34.8962 19.5413 34.8962 24.9997C34.8962 30.458 30.4587 34.8955 25.0004 34.8955ZM36.5003 15.6247C35.3545 15.6247 34.417 14.6872 34.417 13.5413C34.417 12.3955 35.3337 11.458 36.5003 11.458C37.6462 11.458 38.5837 12.3955 38.5837 13.5413C38.5837 14.6872 37.6462 15.6247 36.5003 15.6247ZM31.7712 24.9997C31.7712 28.7288 28.7295 31.7705 25.0004 31.7705C21.2712 31.7705 18.2295 28.7288 18.2295 24.9997C18.2295 21.2705 21.2712 18.2288 25.0004 18.2288C28.7295 18.2288 31.7712 21.2705 31.7712 24.9997Z" fill="#00A500"/>
</svg>
