<svg width="41" height="33" viewBox="0 0 41 33" fill="none" xmlns="http://www.w3.org/2000/svg">
<path d="M23.3296 33V23.0769C23.3296 16.8461 24.7925 11.7692 27.7183 7.84615C30.7211 3.84615 35.1484 1.23077 41 0V7.5C38.3822 8.11538 36.3033 9.26923 34.7634 10.9615C33.2235 12.5769 32.2225 14.5385 31.7606 16.8462H38.6901V33H23.3296ZM0 33V23.0769C0 16.8461 1.46291 11.7692 4.38873 7.84615C7.39155 3.84615 11.7803 1.23077 17.5549 0V7.5C14.9371 8.11538 12.8582 9.26923 11.3183 10.9615C9.7784 12.5769 8.77746 14.5385 8.31549 16.8462H15.2451V33H0Z" fill="#FFFF00"/>
</svg>
