<svg width="50" height="50" viewBox="0 0 50 50" fill="none" xmlns="http://www.w3.org/2000/svg">
<path d="M41.6664 21.6247C38.4372 21.6247 34.7706 20.6247 32.1456 18.7497V31.833C32.1456 38.4163 26.8123 43.7497 20.2289 43.7289C13.6456 43.7289 8.31224 38.3955 8.33307 31.8122C8.33307 25.2289 13.6663 19.8955 20.2497 19.9163C20.7913 19.9163 21.3331 19.958 21.8747 20.0205V26.6039C18.9997 25.708 15.9164 27.2914 15.0206 30.1872C14.1248 33.083 15.7081 36.1455 18.6039 37.0413C21.4789 37.9372 24.5622 36.3538 25.458 33.458C25.6247 32.9372 25.7081 32.3747 25.7081 31.8122V6.20801H32.1456C32.1456 6.74967 32.1872 7.29134 32.2914 7.83301C32.7497 10.2497 34.1665 12.3747 36.2498 13.708C37.7081 14.6664 39.9373 15.1872 41.6873 15.1872V21.583L41.6664 21.6247Z" fill="#00A500"/>
</svg>
